<?xml version="1.0" encoding="UTF-8"?>
<svg width="31px" height="34px" viewBox="0 0 31 34" version="1.1" xmlns="http://www.w3.org/2000/svg" xmlns:xlink="http://www.w3.org/1999/xlink">
    <title>消息</title>
    <g id="页面-1" stroke="none" stroke-width="1" fill="none" fill-rule="evenodd">
        <g id="画板" transform="translate(-671.5, -165)" fill="#111111" fill-rule="nonzero">
            <g id="消息" transform="translate(671.5, 165)">
                <path d="M18.944503,30.5999999 C18.9445031,31.8147029 18.2879845,32.9371348 17.2222515,33.5444864 C16.1565186,34.1518379 14.8434814,34.1518379 13.7777485,33.5444864 C12.7120155,32.9371348 12.0554969,31.8147029 12.055497,30.5999999 L1.72198787,30.5999999 C0.770917588,30.5998562 0,29.8387824 0,28.8999999 C0,27.9612175 0.770917588,27.2001437 1.72198787,27.1999999 L3.44423936,27.1999999 L3.44423936,15.3 C3.44418378,9.38390071 7.84589839,4.36560545 13.7777485,3.51899999 L13.7777485,1.70000001 C13.7777485,0.761115929 14.5488267,0 15.5,0 C16.4511733,0 17.2222515,0.761115929 17.2222515,1.70000001 L17.2222515,3.51899999 C23.0641287,4.34519999 27.5557606,9.30579996 27.5557606,15.3 L27.5557606,27.1999999 L29.2780121,27.1999999 C30.2290824,27.2001437 31,27.9612175 31,28.8999999 C31,29.8387824 30.2290824,30.5998562 29.2780121,30.5999999 L18.944503,30.5999999 L18.944503,30.5999999 Z M24.1112576,27.1999999 L24.1112576,15.3000001 C24.1112576,10.6055797 20.2558662,6.80000012 15.5,6.80000012 C10.7441338,6.80000012 6.88874242,10.6055797 6.88874242,15.3000001 L6.88874242,27.1999999 L24.1112576,27.1999999 Z" id="形状"></path>
            </g>
        </g>
    </g>
</svg>