<?xml version="1.0" encoding="UTF-8"?>
<svg width="21px" height="24px" viewBox="0 0 21 24" version="1.1" xmlns="http://www.w3.org/2000/svg" xmlns:xlink="http://www.w3.org/1999/xlink">
    <title>文章</title>
    <g id="页面-1" stroke="none" stroke-width="1" fill="none" fill-rule="evenodd">
        <g id="画板" transform="translate(-56, -778)" fill="#231815" fill-rule="nonzero">
            <g id="文章" transform="translate(56, 778)">
                <path d="M14.4375,8 L6.5625,8 C5.83762627,8 5.25,7.40304633 5.25,6.66666667 C5.25,5.930287 5.83762627,5.33333333 6.5625,5.33333333 L14.4375,5.33333333 C15.1623737,5.33333333 15.75,5.930287 15.75,6.66666667 C15.75,7.40304633 15.1623737,8 14.4375,8 Z M14.4375,13.3333333 L6.5625,13.3333333 C5.83762627,13.3333333 5.25,12.7363797 5.25,12 C5.25,11.2636203 5.83762627,10.6666667 6.5625,10.6666667 L14.4375,10.6666667 C15.1623737,10.6666667 15.75,11.2636203 15.75,12 C15.75,12.7363797 15.1623737,13.3333333 14.4375,13.3333333 Z M9.1875,18.6666667 L6.5625,18.6666667 C5.83762627,18.6666667 5.25,18.069713 5.25,17.3333333 C5.25,16.5969537 5.83762627,16 6.5625,16 L9.1875,16 C9.91237373,16 10.5,16.5969537 10.5,17.3333333 C10.5,18.069713 9.91237373,18.6666667 9.1875,18.6666667 Z M19.6875,24 L1.3125,24 C0.587626266,24 0,23.4030463 0,22.6666667 L0,1.33333333 C0,0.596953667 0.587626266,0 1.3125,0 L19.6875,0 C20.4123737,0 21,0.596953667 21,1.33333333 L21,22.6666667 C21,23.4030463 20.4123737,24 19.6875,24 Z M2.625,21.3333333 L18.375,21.3333333 L18.375,2.66666667 L2.625,2.66666667 L2.625,21.3333333 Z" id="形状"></path>
            </g>
        </g>
    </g>
</svg>