<?xml version="1.0" encoding="UTF-8"?>
<svg width="30px" height="30px" viewBox="0 0 30 30" version="1.1" xmlns="http://www.w3.org/2000/svg" xmlns:xlink="http://www.w3.org/1999/xlink">
    <title>qr-scan-2-line</title>
    <g id="页面-1" stroke="none" stroke-width="1" fill="none" fill-rule="evenodd">
        <g id="画板" transform="translate(-609.5, -167)" fill="#111111" fill-rule="nonzero">
            <g id="qr-scan-2-line" transform="translate(609.5, 167)">
                <path d="M20,0 L30,0 L30,8.33333332 L26.6666667,8.33333332 L26.6666667,3.33333332 L20,3.33333332 L20,0 Z M10,0 L10,3.33333332 L3.33333332,3.33333332 L3.33333332,8.33333332 L0,8.33333332 L0,0 L10,0 Z M20,30 L20,26.6666667 L26.6666667,26.6666667 L26.6666667,21.6666667 L30,21.6666667 L30,30 L20,30 Z M10,30 L0,30 L0,21.6666667 L3.33333332,21.6666667 L3.33333332,26.6666667 L10,26.6666667 L10,30 Z M0,13.3333333 L30,13.3333333 L30,16.6666667 L0,16.6666667 L0,13.3333333 Z" id="形状"></path>
            </g>
        </g>
    </g>
</svg>