<?xml version="1.0" encoding="UTF-8"?>
<svg width="32px" height="32px" viewBox="0 0 32 32" version="1.1" xmlns="http://www.w3.org/2000/svg" xmlns:xlink="http://www.w3.org/1999/xlink">
    <title>查询</title>
    <g id="页面-1" stroke="none" stroke-width="1" fill="none" fill-rule="evenodd">
        <g id="画板" transform="translate(-48, -167)" fill="#272636" fill-rule="nonzero">
            <g id="查询" transform="translate(48, 167)">
                <path d="M31.2207788,27.4482071 L23.5653045,19.7907597 C23.4762182,19.7021411 23.377762,19.6344706 23.2837385,19.5607231 C24.5769312,17.5760812 25.3320023,15.2121203 25.3320023,12.6657745 C25.3320023,5.67016026 19.6632748,0 12.6660012,0 C5.6726557,0 0,5.67016026 0,12.6657745 C0,19.6623896 5.6726557,25.3312629 12.6660012,25.3312629 C15.2114111,25.3312629 17.5781079,24.574162 19.5658277,23.280738 C19.6382283,23.3769709 19.7046466,23.4726675 19.7922553,23.5605354 L27.4487026,31.2189481 C27.9714718,31.7401141 28.6522323,32 29.3340019,32 C30.016276,32 30.697541,31.7401856 31.2198057,31.2201992 C32.2599025,30.1776885 32.2599025,28.4898957 31.2207788,27.4482071 M12.6660012,21.3317723 C7.88871308,21.3317723 3.99998141,17.4436002 3.99998141,12.6657745 C3.99998141,7.88866373 7.88874912,3.99952634 12.6660012,3.99952634 C17.4432532,3.99952634 21.3319849,7.88866373 21.3319849,12.6657745 C21.3319849,17.4435644 17.4432532,21.3317723 12.6660012,21.3317723" id="形状"></path>
            </g>
        </g>
    </g>
</svg>