<?xml version="1.0" encoding="UTF-8"?>
<svg width="42px" height="42px" viewBox="0 0 42 42" version="1.1" xmlns="http://www.w3.org/2000/svg" xmlns:xlink="http://www.w3.org/1999/xlink">
    <title>1通用图标/常规/导航</title>
    <g id="页面-1" stroke="none" stroke-width="1" fill="none" fill-rule="evenodd">
        <g id="绑定我的车辆备份" transform="translate(-573, -1331)" fill="#666666" fill-rule="nonzero">
            <g id="位图备份-2" transform="translate(494, 1284)">
                <g id="camera" transform="translate(79, 47)">
                    <rect id="矩形" opacity="0" x="0" y="0" width="42" height="42"></rect>
                    <path d="M35.4375,10.171875 L29.859375,10.171875 L28.5304688,6.44765625 C28.3417969,5.92675781 27.8496094,5.578125 27.2917969,5.578125 L14.7082031,5.578125 C14.1544922,5.578125 13.6582031,5.92675781 13.4736328,6.44765625 L12.140625,10.171875 L6.5625,10.171875 C4.74960938,10.171875 3.28125,11.6402344 3.28125,13.453125 L3.28125,32.15625 C3.28125,33.9691406 4.74960938,35.4375 6.5625,35.4375 L35.4375,35.4375 C37.2503906,35.4375 38.71875,33.9691406 38.71875,32.15625 L38.71875,13.453125 C38.71875,11.6402344 37.2503906,10.171875 35.4375,10.171875 Z M35.765625,32.15625 C35.765625,32.3367187 35.6179688,32.484375 35.4375,32.484375 L6.5625,32.484375 C6.38203125,32.484375 6.234375,32.3367187 6.234375,32.15625 L6.234375,13.453125 C6.234375,13.2726562 6.38203125,13.125 6.5625,13.125 L14.2201172,13.125 L14.9214844,11.1644531 L15.8607422,8.53125 L26.1351563,8.53125 L27.0744141,11.1644531 L27.7757813,13.125 L35.4375,13.125 C35.6179688,13.125 35.765625,13.2726562 35.765625,13.453125 L35.765625,32.15625 Z M21,15.75 C17.3742188,15.75 14.4375,18.6867187 14.4375,22.3125 C14.4375,25.9382813 17.3742188,28.875 21,28.875 C24.6257812,28.875 27.5625,25.9382813 27.5625,22.3125 C27.5625,18.6867187 24.6257812,15.75 21,15.75 Z M21,26.25 C18.8261719,26.25 17.0625,24.4863281 17.0625,22.3125 C17.0625,20.1386719 18.8261719,18.375 21,18.375 C23.1738281,18.375 24.9375,20.1386719 24.9375,22.3125 C24.9375,24.4863281 23.1738281,26.25 21,26.25 Z" id="形状"></path>
                </g>
            </g>
        </g>
    </g>
</svg>