<?xml version="1.0" encoding="UTF-8"?>
<svg width="117px" height="60px" viewBox="0 0 117 60" version="1.1" xmlns="http://www.w3.org/2000/svg" xmlns:xlink="http://www.w3.org/1999/xlink">
    <title>模型预览3D弹窗_量测_默认</title>
    <g id="寻寻app" stroke="none" stroke-width="1" fill="none" fill-rule="evenodd" opacity="0.400000006">
        <g id="城管挪车-开始挪车" transform="translate(-317, -457)" fill="#040000" fill-rule="nonzero">
            <g id="模型预览3D弹窗_量测_默认" transform="translate(317, 457)">
                <path d="M0,22.324066 L0,55.7906169 C0,58.1103388 1.88203753,60 4.22151475,60 L112.778485,60 C115.104893,60 117,58.123371 117,55.7906169 L117,22.324066 C117,20.004344 115.117962,18.1146829 112.778485,18.1146829 L4.22151475,18.1146829 C1.89510724,18.1146829 0,19.9913119 0,22.324066 Z M107.994973,51.0208514 L9.00502681,51.0208514 L9.00502681,27.0807993 L12.8213807,27.0807993 L12.8213807,32.2806255 C12.8213807,32.7497828 13.2004021,33.127715 13.6709115,33.127715 L18.7288874,33.127715 C19.1993968,33.127715 19.5784182,32.7497828 19.5784182,32.2806255 L19.5784182,27.0807993 L24.8716488,27.0807993 L24.8716488,32.2806255 C24.8716488,32.7497828 25.2506702,33.127715 25.7211796,33.127715 L30.7791555,33.127715 C31.2496649,33.127715 31.6286863,32.7497828 31.6286863,32.2806255 L31.6286863,27.0807993 L36.9219169,27.0807993 L36.9219169,37.1937446 C36.9219169,37.6629018 37.3009383,38.0408341 37.7714477,38.0408341 L42.8294236,38.0408341 C43.299933,38.0408341 43.6789544,37.6629018 43.6789544,37.1937446 L43.6789544,27.0807993 L48.2794906,27.0807993 L48.2794906,32.2806255 C48.2794906,32.7497828 48.6585121,33.127715 49.1290214,33.127715 L54.1869973,33.127715 C54.6575067,33.127715 55.0365282,32.7497828 55.0365282,32.2806255 L55.0365282,27.0807993 L60.3297587,27.0807993 L60.3297587,32.2806255 C60.3297587,32.7497828 60.7087802,33.127715 61.1792895,33.127715 L66.2372654,33.127715 C66.7077748,33.127715 67.0867962,32.7497828 67.0867962,32.2806255 L67.0867962,27.0807993 L72.3800268,27.0807993 L72.3800268,37.1937446 C72.3800268,37.6629018 72.7590483,38.0408341 73.2295576,38.0408341 L78.2875335,38.0408341 C78.7580429,38.0408341 79.1370643,37.6629018 79.1370643,37.1937446 L79.1370643,27.0807993 L84.7701072,27.0807993 L84.7701072,32.2806255 C84.7701072,32.7497828 85.1491287,33.127715 85.6196381,33.127715 L90.6776139,33.127715 C91.1481233,33.127715 91.5271448,32.7497828 91.5271448,32.2806255 L91.5271448,27.0807993 L96.8203753,27.0807993 L96.8203753,32.2806255 C96.8203753,32.7497828 97.1993968,33.127715 97.6699062,33.127715 L102.727882,33.127715 C103.198391,33.127715 103.577413,32.7497828 103.577413,32.2806255 L103.577413,27.0807993 L108.086461,27.0807993 L108.086461,51.0208514 L107.994973,51.0208514 Z M7.88103217,10.0738488 L109.118968,10.0738488 L109.118968,12.5760209 C109.118968,13.0451781 109.497989,13.4231103 109.968499,13.4231103 L115.026475,13.4231103 C115.496984,13.4231103 115.876005,13.0451781 115.876005,12.5760209 L115.876005,0.847089487 C115.876005,0.377932233 115.496984,0 115.026475,0 L109.968499,0 C109.497989,0 109.118968,0.377932233 109.118968,0.847089487 L109.118968,3.34926151 L7.88103217,3.34926151 L7.88103217,0.847089487 C7.88103217,0.377932233 7.50201072,0 7.03150134,0 L1.97352547,0 C1.50301609,0 1.12399464,0.377932233 1.12399464,0.847089487 L1.12399464,12.5760209 C1.12399464,13.0451781 1.50301609,13.4231103 1.97352547,13.4231103 L7.03150134,13.4231103 C7.50201072,13.4231103 7.88103217,13.0451781 7.88103217,12.5760209 L7.88103217,10.0738488 Z" id="形状"></path>
            </g>
        </g>
    </g>
</svg>