<?xml version="1.0" encoding="UTF-8"?>
<svg width="27px" height="27px" viewBox="0 0 27 27" version="1.1" xmlns="http://www.w3.org/2000/svg" xmlns:xlink="http://www.w3.org/1999/xlink">
    <title>ic关于我们</title>
    <g id="页面-1" stroke="none" stroke-width="1" fill="none" fill-rule="evenodd">
        <g id="切图" transform="translate(-62, -1223)" fill="#1E7AFF" fill-rule="nonzero">
            <path d="M75.5,1223 C82.9558571,1223 89,1229.04414 89,1236.5 C89,1243.95586 82.9558571,1250 75.5,1250 C68.0441429,1250 62,1243.95586 62,1236.5 C62,1229.04414 68.0441429,1223 75.5,1223 Z M75.5,1225.57143 C69.4642143,1225.57143 64.5714286,1230.46421 64.5714286,1236.5 C64.5714286,1242.53579 69.4642143,1247.42857 75.5,1247.42857 C81.5357857,1247.42857 86.4285714,1242.53579 86.4285714,1236.5 C86.4285714,1230.46421 81.5357857,1225.57143 75.5,1225.57143 Z M76.1428571,1233.92857 C76.3133535,1233.92857 76.4768667,1233.9963 76.5974258,1234.11686 C76.7179849,1234.23742 76.7857143,1234.40093 76.7857143,1234.57143 L76.7857143,1243.57143 C76.7857143,1243.74192 76.7179849,1243.90544 76.5974258,1244.026 C76.4768667,1244.14656 76.3133535,1244.21429 76.1428571,1244.21429 L74.8571429,1244.21429 C74.6866465,1244.21429 74.5231333,1244.14656 74.4025742,1244.026 C74.2820151,1243.90544 74.2142857,1243.74192 74.2142857,1243.57143 L74.2142857,1234.57143 C74.2142857,1234.40093 74.2820151,1234.23742 74.4025742,1234.11686 C74.5231333,1233.9963 74.6866465,1233.92857 74.8571429,1233.92857 L76.1428571,1233.92857 L76.1428571,1233.92857 Z M76.1428571,1228.78571 C76.3133535,1228.78571 76.4768667,1228.85344 76.5974258,1228.974 C76.7179849,1229.09456 76.7857143,1229.25808 76.7857143,1229.42857 L76.7857143,1230.71429 C76.7857143,1230.88478 76.7179849,1231.0483 76.5974258,1231.16885 C76.4768667,1231.28941 76.3133535,1231.35714 76.1428571,1231.35714 L74.8571429,1231.35714 C74.6866465,1231.35714 74.5231333,1231.28941 74.4025742,1231.16885 C74.2820151,1231.0483 74.2142857,1230.88478 74.2142857,1230.71429 L74.2142857,1229.42857 C74.2142857,1229.25808 74.2820151,1229.09456 74.4025742,1228.974 C74.5231333,1228.85344 74.6866465,1228.78571 74.8571429,1228.78571 L76.1428571,1228.78571 L76.1428571,1228.78571 Z" id="ic关于我们"></path>
        </g>
    </g>
</svg>