<?xml version="1.0" encoding="UTF-8"?>
<svg width="100px" height="100px" viewBox="0 0 100 100" version="1.1" xmlns="http://www.w3.org/2000/svg" xmlns:xlink="http://www.w3.org/1999/xlink">
    <title>pic头像</title>
    <g id="页面-1" stroke="none" stroke-width="1" fill="none" fill-rule="evenodd">
        <g id="切图" transform="translate(-247, -464)">
            <g id="pic头像" transform="translate(247, 464)">
                <circle id="椭圆形" fill="#1E7AFF" cx="50" cy="50" r="50"></circle>
                <path d="M56.5362545,53.8638713 L43.4726351,53.8638713 C33.2872893,53.8638713 25,62.1435956 25,72.3196439 C25,77.1094199 28.9030459,81 33.6882871,81 L66.3116914,81 C71.1058437,81 74.9999857,77.1005169 74.9999857,72.3196439 C75.0088896,62.1435956 66.7216003,53.8638713 56.5362545,53.8638713 L56.5362545,53.8638713 Z M50.0044448,51.8161976 C59.0580855,51.8161976 66.4275352,44.453475 66.4275352,35.4080988 C66.4275352,26.3627226 59.0580855,19 50.0044448,19 C40.950804,19 33.5813544,26.3627226 33.5813544,35.4080988 C33.5813544,44.453475 40.950804,51.8161976 50.0044448,51.8161976 Z M46.4934857,38.4796094 L54.228289,38.4796094 C55.0837511,38.4796094 55.7342587,39.289776 55.49366,40.1088455 C54.789686,42.4681218 52.5975643,44.1952901 50.0044448,44.1952901 C47.4113252,44.1952901 45.2192036,42.4681218 44.5152295,40.1088455 C44.2746308,39.289776 44.9251385,38.4796094 46.4934857,38.4796094 L46.4934857,38.4796094 Z" id="形状" fill="#FFFFFF" fill-rule="nonzero"></path>
            </g>
        </g>
    </g>
</svg>