<?xml version="1.0" encoding="UTF-8"?>
<svg width="67px" height="59.0000002px" viewBox="0 0 67 59.0000002" version="1.1" xmlns="http://www.w3.org/2000/svg" xmlns:xlink="http://www.w3.org/1999/xlink">
    <title>ic意见</title>
    <g id="页面-1" stroke="none" stroke-width="1" fill="none" fill-rule="evenodd">
        <g id="切图" transform="translate(-220, -741)" fill="#1E7AFF" fill-rule="nonzero">
            <path d="M268.786396,741 L268.911307,741.030871 C272.826284,741.030871 276,744.168374 276,748.03868 L276,762.109 L286.874,756.069 L286.874825,794.036279 C286.581827,797.502365 283.546068,800.114229 280.007743,799.99615 L279.771135,799.984214 L227.10369,799.984214 C223.465034,800.22989 220.299509,797.579389 220,794.036279 L220,756 L232,762.977 L232.000068,748.03868 C231.992264,746.272852 232.658857,744.573013 233.860151,743.27585 L234.065294,743.063442 C235.395583,741.742539 237.203369,741 239.08883,741 L268.786396,741 Z M282.587576,763.381539 L254.923867,778.785165 C253.552526,779.571688 251.851491,779.571688 250.480149,778.785165 L224.38113,763.53405 L224.38113,794.036279 C224.38113,794.798835 225.539,795.683399 227.10369,795.683399 L279.865016,795.683399 C281.429706,795.683399 282.587576,794.829337 282.587576,794.036279 L282.587576,763.381539 Z M268.786396,745.352868 L238.963919,745.352868 C237.463465,745.352868 236.247107,746.555347 236.247107,748.03868 L236.247107,764.678368 L253.203761,774.680703 L271.628119,764.307911 L271.628119,748.069552 C271.628119,746.586219 270.41176,745.38374 268.911307,745.38374 L268.786396,745.352868 Z M263.868605,749 C265.045742,749 266,749.895431 266,751 C266,752.104569 265.045742,753 263.868605,753 L242.131395,753 C241.369921,753 240.66629,752.618802 240.285553,752 C239.904816,751.381198 239.904816,750.618802 240.285553,750 C240.66629,749.381198 241.369921,749 242.131395,749 L263.868605,749 Z M279.962185,749.001183 C283.768244,748.931604 286.914517,751.939921 287,755.73041 L287,793.115004 C287,796.917482 283.905079,800 280.087302,800 L226.912698,800 C223.155172,800.000958 220.085012,797.012283 220,793.270773 L220,755.886179 C220,752.083701 223.094921,749.001183 226.912698,749.001183 L233.543884,749.001183 L233.543884,753.362719 L226.756303,753.362719 C225.357026,753.362719 224.222689,754.492511 224.222689,755.886179 L224.222689,793.270773 C224.222689,794.664441 225.357026,795.794233 226.756303,795.794233 L279.930906,795.794233 C281.330182,795.794233 282.464519,794.664441 282.464519,793.270773 L282.464519,755.886179 C282.464519,754.492511 281.330182,753.362719 279.930906,753.362719 L273.174603,753.362719 L273.174603,749.001183 Z M254.804498,756 C256.01704,756 257,756.895431 257,758 C257,759.104569 256.01704,760 254.804498,760 L241.195502,760 C240.411125,760 239.68633,759.618802 239.294141,759 C238.901953,758.381198 238.901953,757.618802 239.294141,757 C239.68633,756.381198 240.411125,756 241.195502,756 L254.804498,756 Z" id="ic意见"></path>
        </g>
    </g>
</svg>