<?xml version="1.0" encoding="UTF-8"?>
<svg width="66px" height="49px" viewBox="0 0 66 49" version="1.1" xmlns="http://www.w3.org/2000/svg" xmlns:xlink="http://www.w3.org/1999/xlink">
    <title>ic实名</title>
    <g id="页面-1" stroke="none" stroke-width="1" fill="none" fill-rule="evenodd">
        <g id="切图" transform="translate(-221, -616)" fill="#1E7AFF" fill-rule="nonzero">
            <path d="M284.555556,616 C285.9,616 287,617.1025 287,618.45 L287,662.55 C287,663.8975 285.9,665 284.555556,665 L223.444444,665 C222.1,665 221,663.8975 221,662.55 L221,618.45 C221,617.1025 222.1,616 223.444444,616 Z M282.111111,620.9 L225.888889,620.9 L225.888889,660.1 L282.111111,660.1 L282.111111,620.9 Z M241.945946,627 C245.959459,627 249.243243,630.328767 249.243243,634.39726 C249.243243,635.876712 248.756757,637.232877 248.027027,638.465753 C250.945946,640.315068 252.891892,643.643836 252.891892,647.465753 L252.891892,651.534247 C252.891892,652.890411 251.797297,654 250.459459,654 L233.432432,654 C232.094595,654 231,652.890411 231,651.534247 L231,647.465753 C231,643.767123 232.945946,640.438356 235.864865,638.465753 C235.135135,637.356164 234.648649,635.876712 234.648649,634.39726 C234.648649,630.328767 237.932432,627 241.945946,627 Z M242.675676,641.671233 L241.216216,641.671233 C238.175676,641.917808 235.864865,644.383562 235.864865,647.465753 L235.864865,649.068493 L248.027027,649.068493 L248.027027,647.465753 C248.027027,644.383562 245.594595,641.917808 242.675676,641.671233 Z M276,643.520548 L276,648.452055 L257.756757,648.452055 L257.756757,643.520548 L276,643.520548 Z M276,632.424658 L276,637.356164 L257.756757,637.356164 L257.756757,632.424658 L276,632.424658 Z M241.945946,631.808219 C240.608108,631.808219 239.513514,632.917808 239.513514,634.273973 C239.513514,635.506849 240.364865,636.493151 241.459459,636.616438 L242.554054,636.616438 C243.527027,636.369863 244.378378,635.383562 244.378378,634.273973 C244.378378,632.917808 243.283784,631.808219 241.945946,631.808219 Z" id="ic实名"></path>
        </g>
    </g>
</svg>