<?xml version="1.0" encoding="UTF-8"?>
<svg width="60px" height="59px" viewBox="0 0 60 59" version="1.1" xmlns="http://www.w3.org/2000/svg" xmlns:xlink="http://www.w3.org/1999/xlink">
    <title>ic邀请</title>
    <g id="页面-1" stroke="none" stroke-width="1" fill="none" fill-rule="evenodd">
        <g id="切图" transform="translate(-64, -610)" fill="#1E7AFF" fill-rule="nonzero">
            <path d="M92.0014285,610 C100.823995,610 108,617.177754 108,625.999286 C108,631.43486 105.27639,636.246005 101.1221,639.139068 C105.203943,640.311497 109.00631,642.369515 112.243703,645.204788 C113.16958,646.014455 113.256933,647.415875 112.441715,648.333813 C111.620688,649.253191 110.208598,649.333966 109.285626,648.527179 C104.796084,644.597126 99.0254476,642.433694 93.0335601,642.433694 C79.4892038,642.433694 68.472043,653.356381 68.472043,666.783153 C68.4721122,668.007047 67.4705018,669 66.2360215,669 C65.0015412,669 64,668.007047 64,666.783153 C64,654.203649 72.1808262,643.483677 83.5458458,639.577737 C79.0184215,636.749662 76,631.720345 76,625.999286 C76,617.177754 83.1788619,610 92.0014285,610 Z M114,649 C115.104176,649 116,650.014132 116,651.264132 L116,657 L121.73586,657 C122.985864,657 124,657.895824 124,659 C124,660.104176 122.985864,661 121.73586,661 L116,661 L116,666.735798 C116,667.985868 115.104176,669 114,669 C112.895824,669 112,667.985868 112,666.735868 L112,661 L106.26414,661 C105.014136,661 104,660.104176 104,659 C104,657.895824 105.014136,657 106.26414,657 L112,657 L112,651.264132 C112,650.014132 112.895824,649 114,649 Z M92.0014285,614.398555 C85.6042855,614.398555 80.398359,619.603286 80.398359,625.999286 C80.398359,632.396714 85.6042855,637.601445 92.0014285,637.601445 C98.3985715,637.601445 103.601641,632.396714 103.601641,625.999286 C103.601641,619.603286 98.3985715,614.398555 92.0014285,614.398555 Z" id="ic邀请"></path>
        </g>
    </g>
</svg>