<?xml version="1.0" encoding="UTF-8"?>
<svg width="23px" height="23px" viewBox="0 0 23 23" version="1.1" xmlns="http://www.w3.org/2000/svg" xmlns:xlink="http://www.w3.org/1999/xlink">
    <title>ic操作手册</title>
    <g id="页面-1" stroke="none" stroke-width="1" fill="none" fill-rule="evenodd">
        <g id="切图" transform="translate(-64, -1060)" fill="#1E7AFF" fill-rule="nonzero">
            <path d="M81.25,1073.41667 L67.88125,1073.41667 C67.1625,1073.41667 66.4916667,1073.60833 65.9166667,1073.94375 L65.9166667,1063.85729 C65.9166667,1062.77917 66.7791667,1061.91667 67.8572917,1061.91667 L81.25,1061.91667 L81.25,1073.41667 Z M83.1666667,1060 L67.8572917,1060 C65.725,1060 64,1061.725 64,1063.85729 L64,1079.14271 C64,1081.275 65.725,1083 67.8572917,1083 L87,1083 L87,1061.91667 L85.0833333,1061.91667 L85.0833333,1081.08333 L67.88125,1081.08333 C66.803125,1081.08333 65.9166667,1080.19688 65.9166667,1079.11875 L65.9166667,1077.29792 C65.9166667,1076.21979 66.803125,1075.33333 67.88125,1075.33333 L83.1666667,1075.33333 L83.1666667,1060 Z M83.1666667,1077.25 L67.8333333,1077.25 L67.8333333,1079.16667 L83.1666667,1079.16667 L83.1666667,1077.25 Z" id="ic操作手册"></path>
        </g>
    </g>
</svg>