<?xml version="1.0" encoding="UTF-8"?>
<svg width="57px" height="60px" viewBox="0 0 57 60" version="1.1" xmlns="http://www.w3.org/2000/svg" xmlns:xlink="http://www.w3.org/1999/xlink">
    <title>ic积分</title>
    <g id="页面-1" stroke="none" stroke-width="1" fill="none" fill-rule="evenodd">
        <g id="切图" transform="translate(-546, -610)" fill="#1E7AFF" fill-rule="nonzero">
            <path d="M568.996534,631.82612 C576.088922,631.82612 583.465561,630.27499 587.895705,627.317503 L587.895705,632.701647 L592,632.701647 L592,620.91306 C592,613.82612 580.15162,610 569.003466,610 C557.855313,610 546,613.82612 546,620.91306 L546,653.08694 C546,660.17388 557.84838,664 568.996534,664 L568.996534,659.925699 C557.286812,659.925699 550.097362,655.941019 550.097362,653.08694 L550.097362,643.414784 C554.527506,646.365377 561.897212,647.923401 568.996534,647.923401 L568.996534,643.842206 C557.286812,643.842206 550.097362,639.857526 550.097362,637.003447 L550.097362,627.324397 C554.527506,630.27499 561.904145,631.82612 568.996534,631.82612 Z M569,614 C580.772194,614 588,618.078629 588,621 C588,623.921371 580.772194,628 569,628 C557.227806,628 550,623.921371 550,621 C550,618.078629 557.234776,614 569,614 Z M587.496536,634 C577.320223,634 572,637.877979 572,641.707912 L572,662.292088 C572,666.122021 577.327151,670 587.496536,670 C597.596648,670 602.909944,666.17693 602.993073,662.374452 L603,662.374452 L603,641.707912 C602.993073,637.877979 597.672849,634 587.496536,634 Z M587.5,638 C595.087485,638 599,640.453947 599,641.5 C599,642.546053 595.087485,645 587.5,645 C579.912515,645 576,642.546053 576,641.5 C576,640.453947 579.912515,638 587.5,638 Z M587.5,666 C579.912515,666 576,663.310096 576,662.163462 L576,657 C578.619988,658.471154 582.469623,659.451923 587.5,659.451923 C592.530377,659.451923 596.373026,658.471154 599,657 L599,662.163462 C599,663.310096 595.087485,666 587.5,666 Z M587.5,656 C579.912515,656 576,653.310096 576,652.163462 L576,647 C578.619988,648.471154 582.469623,649.451923 587.5,649.451923 C592.530377,649.451923 596.373026,648.471154 599,647 L599,652.163462 C599,653.310096 595.087485,656 587.5,656 Z" id="ic积分"></path>
        </g>
    </g>
</svg>