<?xml version="1.0" encoding="UTF-8"?>
<svg width="23px" height="29px" viewBox="0 0 23 29" version="1.1" xmlns="http://www.w3.org/2000/svg" xmlns:xlink="http://www.w3.org/1999/xlink">
    <title>ic隐私协议</title>
    <g id="页面-1" stroke="none" stroke-width="1" fill="none" fill-rule="evenodd">
        <g id="切图" transform="translate(-64, -894)" fill="#1E7AFF" fill-rule="nonzero">
            <path d="M74.2511719,894.303168 C75.0328125,893.898944 75.9701823,893.898944 76.7518229,894.303168 L85.4397135,898.783842 C86.4010417,899.281349 87,900.282582 87,901.398863 L87,909.592184 C87,913.363909 85.2330729,916.939742 82.1514323,919.402402 C79.9233073,921.184099 76.1498698,922.828982 75.9911458,922.897389 C75.8354167,922.965796 75.6677083,923 75.5,923 C75.3352865,923 75.1675781,922.965796 75.0088542,922.897389 C74.8501302,922.825873 71.0766927,921.18099 68.8485677,919.402402 C65.7669271,916.939742 64,913.3608 64,909.592184 L64,901.398863 C64,900.282582 64.5989583,899.281349 65.5602865,898.783842 Z M75.6138021,896.681874 C75.5419271,896.644561 75.4580729,896.644561 75.3861979,896.681874 L66.6983073,901.162548 C66.6144531,901.206079 66.5575521,901.299362 66.5575521,901.398863 L66.5575521,909.592184 C66.5575521,912.530585 67.9621094,915.3415 70.4088542,917.300434 C71.9361979,918.522436 74.4458333,919.738219 75.5,920.226398 C76.5571615,919.738219 79.0697917,918.519327 80.5941406,917.300434 C83.0408854,915.3415 84.4454427,912.533694 84.4454427,909.592184 L84.4424479,901.398863 C84.4424479,901.299362 84.3885417,901.206079 84.3016927,901.162548 Z M75.5,902 C77.156045,902 78.5,903.493361 78.5,905.333507 C78.5,906.701901 77.757732,907.870346 76.7005623,908.385837 L76.7005623,912.665972 C76.7005623,913.40328 76.1635426,914 75.5,914 C74.8364574,914 74.2994377,913.40328 74.2994377,912.665972 L74.2994377,908.385837 C73.242268,907.870346 72.5,906.698776 72.5,905.333507 C72.5,903.493361 73.843955,902 75.5,902 Z" id="ic隐私协议"></path>
        </g>
    </g>
</svg>