<?xml version="1.0" encoding="UTF-8"?>
<svg width="27px" height="27px" viewBox="0 0 27 27" version="1.1" xmlns="http://www.w3.org/2000/svg" xmlns:xlink="http://www.w3.org/1999/xlink">
    <title>ic常见问题</title>
    <g id="页面-1" stroke="none" stroke-width="1" fill="none" fill-rule="evenodd">
        <g id="切图" transform="translate(-62, -1140)" fill="#1E7AFF" fill-rule="nonzero">
            <path d="M75.5,1140 C82.9558571,1140 89,1146.04414 89,1153.5 C89,1160.95586 82.9558571,1167 75.5,1167 C68.0441429,1167 62,1160.95586 62,1153.5 C62,1146.04414 68.0441429,1140 75.5,1140 Z M75.5,1142.57143 C69.4642143,1142.57143 64.5714286,1147.46421 64.5714286,1153.5 C64.5714286,1159.53579 69.4642143,1164.42857 75.5,1164.42857 C81.5357857,1164.42857 86.4285714,1159.53579 86.4285714,1153.5 C86.4285714,1147.46421 81.5357857,1142.57143 75.5,1142.57143 Z M75.3471616,1158.18132 C75.8275109,1158.18132 76.2423581,1158.33516 76.569869,1158.64286 C76.8755459,1158.95055 77.0502183,1159.34615 77.0502183,1159.82967 C77.0502183,1160.31319 76.8755459,1160.73077 76.5480349,1161.03846 C76.220524,1161.34615 75.8275109,1161.5 75.3471616,1161.5 C74.8668122,1161.5 74.4737991,1161.32418 74.1462882,1161.01648 C73.8187773,1160.70879 73.6659389,1160.31319 73.6659389,1159.82967 C73.6659389,1159.34615 73.8187773,1158.95055 74.1462882,1158.64286 C74.4737991,1158.33516 74.8668122,1158.18132 75.3471616,1158.18132 Z M75.7401747,1145.5 C77.1593886,1145.5 78.3165939,1145.87363 79.1899563,1146.66484 C80.0633188,1147.43407 80.5,1148.48901 80.5,1149.82967 C80.5,1150.92857 80.2161572,1151.82967 79.6921397,1152.53297 C79.6675764,1152.56044 79.63619,1152.59375 79.598023,1152.63281 L79.4632233,1152.76717 C79.1531114,1153.07005 78.6004367,1153.57692 77.8144105,1154.26923 C77.4213974,1154.5989 77.1375546,1154.97253 76.941048,1155.36813 C76.7227074,1155.80769 76.6135371,1156.26923 76.6135371,1156.7967 L76.6135371,1157.1044 L74.1026201,1157.1044 L74.1026201,1156.7967 C74.1026201,1155.96154 74.2336245,1155.23626 74.5393013,1154.64286 C74.8231441,1154.04945 75.6746725,1153.12637 77.0938865,1151.85165 L77.3558952,1151.54396 C77.7489083,1151.06044 77.9454148,1150.53297 77.9454148,1149.98352 C77.9454148,1149.25824 77.7270742,1148.68681 77.3340611,1148.26923 C76.919214,1147.85165 76.3296943,1147.65385 75.5873362,1147.65385 C74.6266376,1147.65385 73.9497817,1147.93956 73.5349345,1148.55495 C73.1637555,1149.06044 72.989083,1149.78571 72.989083,1150.70879 L70.5,1150.70879 C70.5,1149.08242 70.9585153,1147.80769 71.919214,1146.88462 C72.8580786,1145.96154 74.1244541,1145.5 75.7401747,1145.5 Z" id="ic常见问题"></path>
        </g>
    </g>
</svg>