<?xml version="1.0" encoding="UTF-8"?>
<svg width="20px" height="25px" viewBox="0 0 20 25" version="1.1" xmlns="http://www.w3.org/2000/svg" xmlns:xlink="http://www.w3.org/1999/xlink">
    <title>ic注册协议</title>
    <g id="页面-1" stroke="none" stroke-width="1" fill="none" fill-rule="evenodd">
        <g id="切图" transform="translate(-66, -979)" fill="#1E7AFF" fill-rule="nonzero">
            <path d="M67.0721493,979 C66.4800176,979 66,979.471922 66,980.054067 L66,1002.94593 C66,1003.52877 66.4793138,1004 67.0721493,1004 L84.9278507,1004 C85.5206862,1004 86,1003.52877 86,1002.94593 L86,980.054067 C86,979.471922 85.5199824,979 84.9278507,979 L67.0721493,979 Z M67.8920283,1002.13988 L67.8920283,980.860119 L70.2015641,980.860119 L70.2015641,987.683036 C70.2015641,988.632937 71.3784057,989.097966 72.0469223,988.414683 L74.4182644,985.986607 L76.7896065,988.413442 C77.4593845,989.097966 78.636226,988.632937 78.636226,987.683036 L78.636226,980.860119 L84.1079717,980.860119 L84.1079717,1002.13988 L67.8920283,1002.13988 Z M76.7441978,980.860119 L76.7441978,985.680308 L75.1927346,984.093006 C74.9905709,983.886096 74.7113529,983.769145 74.4195257,983.769145 C74.1276986,983.769145 73.8484805,983.886096 73.6463169,984.093006 L72.0948537,985.680308 L72.0948537,980.860119 L76.7441978,980.860119 Z M81.3708375,997.722718 C81.3708375,998.236376 80.9472926,998.652778 80.4248234,998.652778 L71.1475782,998.652778 C70.6251091,998.652778 70.2015641,998.236376 70.2015641,997.722718 C70.2015641,997.209061 70.6251091,996.792659 71.1475782,996.792659 L80.4248234,996.792659 C80.9472926,996.792659 81.3708375,997.209061 81.3708375,997.722718 Z M78.636226,993.314236 C78.636226,992.800578 78.2126811,992.384177 77.6902119,992.384177 L71.1475782,992.384177 C70.625109,992.384177 70.2015641,992.800578 70.2015641,993.314236 C70.2015641,993.827894 70.625109,994.244296 71.1475782,994.244296 L77.6902119,994.244296 C78.2126811,994.244296 78.636226,993.827894 78.636226,993.314236 Z" id="ic注册协议"></path>
        </g>
    </g>
</svg>