<?xml version="1.0" encoding="UTF-8"?>
<svg width="61px" height="56px" viewBox="0 0 61 56" version="1.1" xmlns="http://www.w3.org/2000/svg" xmlns:xlink="http://www.w3.org/1999/xlink">
    <title>ic签到</title>
    <g id="页面-1" stroke="none" stroke-width="1" fill="none" fill-rule="evenodd">
        <g id="切图" transform="translate(-384, -612)" fill="#1E7AFF" fill-rule="nonzero">
            <path d="M393.297514,617 C393.808024,617 394.287369,617.199046 394.64799,617.563226 C395.01158,617.927407 395.210442,618.413964 395.210442,618.932957 C395.210442,619.450477 395.010096,619.938508 394.64799,620.304163 C394.287369,620.668343 393.806539,620.868864 393.297514,620.868864 L391.461756,620.868864 C389.370743,620.868864 387.911931,622.160451 387.911931,624.009367 L387.911931,629.216999 L441.05542,629.216999 L441.05542,628.798265 L441.054979,628.196128 L441.054067,625.981618 C441.054034,625.807989 441.05401,625.636684 441.053991,625.467399 L441.053936,623.972506 C441.004963,622.736947 440.457352,621.880312 439.425944,621.424718 C438.585977,621.05464 437.544181,621.003036 436.543937,621.003036 C436.382177,621.003036 436.221901,621.00451 436.066076,621.005984 C435.914704,621.007459 435.772236,621.008933 435.632736,621.008933 C434.577584,621.008933 433.718324,620.140503 433.718324,619.073027 C433.718324,618.005551 434.5761,617.137121 435.632736,617.137121 L437.46701,617.137121 C438.588945,617.137121 439.920129,617.237381 441.294351,617.98196 C442.395509,618.579098 443.263673,619.394449 443.876581,620.405898 C444.48949,621.41882 444.826367,622.595403 444.878309,623.904683 L445,661.08647 C445,661.994709 444.821915,662.88673 444.470198,663.734519 C444.128868,664.557242 443.643587,665.298872 443.024742,665.940243 C442.404413,666.584562 441.68317,667.090286 440.884756,667.444146 C440.055177,667.812749 439.175141,667.998526 438.272844,667.998526 L390.712315,668 C389.597801,668 388.493675,667.712489 387.51866,667.166956 C386.462023,666.57719 385.571599,665.689592 384.946818,664.601474 C384.327973,663.523677 384,662.307285 384,661.08647 L384,624.010841 C384,623.28248 384.143952,622.562966 384.264159,622.088205 C384.648526,620.571032 385.583471,619.277971 386.966597,618.349089 C388.262164,617.479185 389.858992,617 391.461756,617 L393.297514,617 Z M441.059873,633.102082 L387.911931,633.102082 L387.911931,661.084996 C387.911931,662.714224 389.173365,664.038248 390.722703,664.038248 L438.268392,664.038248 C439.817731,664.038248 441.079357,662.712749 441.079357,661.084996 L441.079357,657.993148 C441.080649,651.9451 441.073229,645.796791 441.067293,639.850477 C441.064325,637.74059 441.062841,635.630703 441.059873,633.519341 L441.059873,633.102082 Z M423.791673,637.131794 C424.762391,636.280475 426.225821,636.401029 427.04946,637.398204 C427.877512,638.395379 427.76132,639.894119 426.789132,640.748415 L411.151753,654.430553 C410.216334,655.252107 408.819089,655.176202 407.973388,654.257908 L402.027007,647.811988 C401.604892,647.355074 401.376921,646.743374 401.393099,646.113814 C401.409278,645.482765 401.669607,644.885949 402.115254,644.452847 C403.046261,643.553901 404.50675,643.591109 405.386279,644.543635 L409.822164,649.352401 Z M400.357667,612 C400.551811,612.002977 400.744484,612.031255 400.932744,612.083346 C401.343093,612.18604 401.719613,612.400358 402.021124,612.705464 C402.129962,612.814112 402.227034,612.933177 402.310869,613.062661 C402.566785,613.446648 402.71387,613.909516 402.71387,614.406616 L402.71387,624.57185 C402.715334,625.21034 402.469713,625.82204 402.028478,626.273002 C401.582831,626.723963 400.982751,626.978466 400.356196,626.976984 C399.632571,626.976984 398.991309,626.634664 398.560369,626.110775 C398.216205,625.68958 398,625.158249 398,624.567386 L398,614.405127 C398,613.076056 399.045728,612 400.357667,612 Z M428.64232,612.00147 C429.758645,611.997023 430.72495,612.799229 430.952922,613.921423 C430.982338,614.079185 430.999994,614.241412 430.999994,614.406616 L430.999994,624.561432 C431.001458,625.199922 430.754366,625.811622 430.314602,626.262584 C429.870425,626.716522 429.268874,626.969536 428.64232,626.966586 C428.018707,626.965071 427.418627,626.713545 426.97445,626.262584 C426.547923,625.826505 426.284653,625.223735 426.284653,624.561432 L426.284653,614.406616 C426.284653,613.077545 427.328909,612.00147 428.64232,612.00147 Z M421.546931,616.000186 C422.902123,616.000186 424,617.118524 424,618.5 C424,619.87991 422.902123,620.999814 421.546931,620.999814 L406.48231,620.999814 C405.599641,621.010778 404.777793,620.536189 404.33334,619.757739 C403.888887,618.980854 403.888887,618.019146 404.33334,617.240695 C404.777793,616.463811 405.598082,615.989222 406.48231,616.000186 Z" id="ic签到"></path>
        </g>
    </g>
</svg>