<?xml version="1.0" encoding="UTF-8"?>
<svg width="65px" height="56px" viewBox="0 0 65 56" version="1.1" xmlns="http://www.w3.org/2000/svg" xmlns:xlink="http://www.w3.org/1999/xlink">
    <title>ic钱包</title>
    <g id="页面-1" stroke="none" stroke-width="1" fill="none" fill-rule="evenodd">
        <g id="切图" transform="translate(-62, -744)" fill="#1E7AFF" fill-rule="nonzero">
            <path d="M120.035714,800 L68.9642857,800 C65.1339286,800 62,796.85 62,793 L62,751 C62,747.15 65.1339286,744 68.9642857,744 L120.035714,744 C123.866071,744 127,747.15 127,751 L127,755.666667 C127,756.95 125.955357,758 124.678571,758 C123.401786,758 122.357143,756.95 122.357143,755.666667 L122.357143,751 C122.357143,749.716667 121.3125,748.666667 120.035714,748.666667 L68.9642857,748.666667 C67.6875,748.666667 66.6428571,749.716667 66.6428571,751 L66.6428571,793 C66.6428571,794.283333 67.6875,795.333333 68.9642857,795.333333 L120.035714,795.333333 C121.3125,795.333333 122.357143,794.283333 122.357143,793 L122.357143,788.333333 C122.357143,787.05 123.401786,786 124.678571,786 C125.955357,786 127,787.05 127,788.333333 L127,793 C127,796.85 123.866071,800 120.035714,800 Z M112.666667,774 L110.333333,774 C109.05,774 108,773.1 108,772 C108,770.9 109.05,770 110.333333,770 L112.666667,770 C113.95,770 115,770.9 115,772 C115,773.1 113.95,774 112.666667,774 Z M124.75,782 L106.75,782 C103.0375,782 100,778.79375 100,774.875 L100,770.125 C100,766.20625 103.0375,763 106.75,763 L124.75,763 C125.9875,763 127,764.06875 127,765.375 L127,779.625 C127,780.93125 125.9875,782 124.75,782 Z M106.375,767 C105.06875,767 104,768.0125 104,769.25 L104,773.75 C104,774.9875 105.06875,776 106.375,776 L123,776 L123,767 L106.375,767 Z" id="ic钱包"></path>
        </g>
    </g>
</svg>